<svg width="768" height="768" viewBox="0 0 768 768" fill="none" xmlns="http://www.w3.org/2000/svg">
  <defs>
    <linearGradient id="bg" x1="0" y1="0" x2="0" y2="1">
      <stop offset="0%" stop-color="#4a6f8e"/>
      <stop offset="100%" stop-color="#264457"/>
    </linearGradient>
    <linearGradient id="mountain1" x1="0" y1="0" x2="0" y2="1">
      <stop offset="0%" stop-color="#2b524b"/>
      <stop offset="100%" stop-color="#1c3b35"/>
    </linearGradient>
    <linearGradient id="mountain2" x1="0" y1="0" x2="0" y2="1">
      <stop offset="0%" stop-color="#3a655c"/>
      <stop offset="100%" stop-color="#22443d"/>
    </linearGradient>
    <filter id="shadow" x="-20%" y="-20%" width="140%" height="140%">
      <feGaussianBlur stdDeviation="12" result="blur"/>
      <feOffset dy="6" result="offset"/>
      <feComposite in="offset" in2="blur" operator="over" result="shadow"/>
    </filter>
  </defs>
  <rect width="768" height="768" rx="140" fill="url(#bg)"/>
  <circle cx="610" cy="122" r="42" fill="#f4d86c" filter="url(#shadow)" opacity="0.85"/>
  <path d="M150 590C210 500 260 450 360 400C440 360 520 350 620 380C620 520 620 620 620 620C620 640 604 656 584 656H184C154 656 138 620 150 590Z" fill="url(#mountain2)"/>
  <path d="M80 610C140 510 210 470 300 440C370 416 420 412 500 430C500 560 500 640 500 640C500 656 486 670 470 670H130C98 670 80 640 80 610Z" fill="url(#mountain1)"/>
  <path d="M320 320L460 580H180L320 320Z" fill="#d8e5e0"/>
  <path d="M500 260L660 560H360L500 260Z" fill="#dfeae6"/>
  <path d="M620 420C640 390 670 380 690 410C706 434 698 466 672 476L640 488L620 420Z" fill="#f4d86c" opacity="0.9"/>
  <path d="M524 242C524 225 538 212 554 212H645C661 212 675 225 675 242C675 253 670 264 661 270L629 293C623 297 615 297 609 293L577 270C568 264 563 253 563 242H524Z" fill="#f1da85"/>
  <path d="M544 206C544 191 556 178 572 178H628C644 178 656 191 656 206C656 223 642 236 626 236H574C558 236 544 223 544 206Z" fill="#f7e7a7"/>
  <path d="M552 200C552 189 561 180 572 180H630C641 180 650 189 650 200C650 211 641 220 630 220H572C561 220 552 211 552 200Z" fill="#f4d86c"/>
  <circle cx="554" cy="180" r="16" fill="#f7e7a7"/>
  <circle cx="644" cy="180" r="16" fill="#f7e7a7"/>
  <circle cx="598" cy="148" r="18" fill="#f7e7a7"/>
  <path d="M0 560C110 620 200 640 340 640C480 640 560 620 700 560V700C700 729 676 753 647 753H93C64 753 40 729 40 700V560Z" fill="#e2ecf0"/>
  <path d="M60 592C130 640 210 660 340 660C470 660 550 640 680 592V700C680 724 660 744 636 744H84C60 744 40 724 40 700V592Z" fill="#d4e1e7"/>
</svg>
